<svg xmlns="http://www.w3.org/2000/svg" viewBox="0 0 161.56 79.87"><defs><style>.cls-1{fill:#fff;}.cls-2{fill:#00264d;}</style></defs><g id="Layer_2" data-name="Layer 2"><g id="Layer_1-2" data-name="Layer 1"><path class="cls-1" d="M139.17,77.19c.18-.35.32-.61.45-.88,1.43-3,2.87-5.93,4.29-8.9a5.79,5.79,0,0,1,5.57-3.54c2,0,4.06,0,6.09,0a3.07,3.07,0,0,0,3.18-2.43,4.11,4.11,0,0,0,.07-.86c0-17.3,0-34.61,0-51.91a3.31,3.31,0,0,0-3.5-3.49q-54.88,0-109.76,0H35.71a1.35,1.35,0,0,1-1.39-.83,1.2,1.2,0,0,1,.33-1.49,2.11,2.11,0,0,1,1.11-.38c3.31,0,6.62,0,9.93,0H155.45A5.65,5.65,0,0,1,161.08,6a5.88,5.88,0,0,1,.46,2.28q0,26.24,0,52.47a5.81,5.81,0,0,1-5.75,5.8q-3.15,0-6.3,0a3.19,3.19,0,0,0-3.12,2q-2.29,4.8-4.63,9.58a2.77,2.77,0,0,1-3.61,1.52A3.17,3.17,0,0,1,136.5,78c-1.51-3.13-3-6.26-4.53-9.4a3.23,3.23,0,0,0-3.17-2l-52,0L30,66.55H6a5.81,5.81,0,0,1-6-6V8.31A5.79,5.79,0,0,1,5.78,2.45c1.61,0,3.21,0,4.81,0a1.36,1.36,0,1,1,0,2.71H6.13a3.12,3.12,0,0,0-3.4,3.41q0,25.93,0,51.86a3.09,3.09,0,0,0,1.82,3.1A3.75,3.75,0,0,0,6,63.8c2.49,0,5,0,7.48,0H42l61.22,0h25.6a5.82,5.82,0,0,1,5.63,3.53l4.44,9.21C139,76.79,139,76.94,139.17,77.19Z"/><path class="cls-1" d="M22.39.05A3.25,3.25,0,0,0,21,1.91l.49.26a2.68,2.68,0,1,1-4,2.45,3.4,3.4,0,0,1,.79-2.21A5.15,5.15,0,0,1,22.39.05Z"/><path class="cls-1" d="M28.29,0a3.34,3.34,0,0,0-1.41,1.84,9,9,0,0,1,1.2.91A2.62,2.62,0,0,1,28.32,6a2.69,2.69,0,0,1-3.05,1.08A2.62,2.62,0,0,1,23.41,4.4,4.74,4.74,0,0,1,25.58,1,5.18,5.18,0,0,1,28.29,0Z"/><polygon class="cls-1" points="6.7 9.37 6.7 60.53 133.95 60.53 139.4 68.91 145.06 59.69 154.71 59.69 154.71 9.37 6.7 9.37"/><rect class="cls-2" x="14.64" y="24.27" width="132.28" height="5.02" rx="2.51"/><rect class="cls-2" x="14.64" y="32.64" width="132.28" height="5.02" rx="2.51"/><rect class="cls-2" x="14.64" y="41.01" width="132.28" height="5.02" rx="2.51"/></g></g></svg>