<svg xmlns="http://www.w3.org/2000/svg" viewBox="0 0 130.39 91.53"><defs><style>.cls-1{fill:#fff;}</style></defs><g id="Layer_2" data-name="Layer 2"><g id="Layer_1-2" data-name="Layer 1"><path class="cls-1" d="M0,31.17a11.86,11.86,0,0,1,3.42-4.93q11-10.9,21.89-21.87C28.79.89,32.55.87,36,4.34c4.93,5,9.82,10,14.78,15a11.88,11.88,0,0,1,6.89-2.46A11.15,11.15,0,0,1,64.3,19.2c4.57-4.62,9.59-5.39,15.15-1.68.35-.33.69-.63,1-1l14.05-14c3.34-3.34,7-3.36,10.36,0l23,23c3.31,3.32,3.3,7,0,10.37L121.77,42c-3.19,3.18-6.45,3.35-9.92.54a3.13,3.13,0,0,0-.37-.23c-.25.23-.5.44-.74.67q-7.56,7.56-15.1,15.14a3.08,3.08,0,0,0-.82,1.73,6.86,6.86,0,0,1-5.71,6.28c-.4.08-1,.42-1.07.75C86.89,71,85.56,72.28,81.37,73c-.41,4-2.63,6.24-6.63,6.7-1.59,5.5-3.43,6.9-8.62,6.5-.12.27-.26.57-.38.87a6.88,6.88,0,0,1-13.21-1.26c-.13-.83-.37-1.1-1.21-1.21a6.69,6.69,0,0,1-5.51-5.45l-.19-1.06c-3.95-.52-6.24-2.75-6.75-6.71-6.67-.78-8.57-7.88-4.74-12L18.76,44.06c-.19.16-.54.45-.89.72a6.16,6.16,0,0,1-8,0C7,42.11,4.18,39.23,1.44,36.34A11.42,11.42,0,0,1,0,33.72ZM52.82,70.89a6.73,6.73,0,0,1,5.34,3c.66,1.09.63,2.72,1.46,3.55s2.5.88,3.63,1.56a18.91,18.91,0,0,1,2.64,2.37,2.56,2.56,0,0,0,4.3-1.06,2.72,2.72,0,0,0-.91-2.86Q63,71.18,56.77,64.91a6.6,6.6,0,0,1-.92-1.06,2.11,2.11,0,0,1,2.88-2.94,5.74,5.74,0,0,1,1.07.9q6,6,12,12A8.42,8.42,0,0,0,73,74.84a2.65,2.65,0,0,0,3.19-.22,2.54,2.54,0,0,0,.38-3.06,7.66,7.66,0,0,0-1.19-1.47c-4-4-8-8-12-12a6.08,6.08,0,0,1-.93-1,2.14,2.14,0,0,1,2.9-3,5.38,5.38,0,0,1,1.06.91L78.54,67.06a8,8,0,0,0,1.26,1.06A2.65,2.65,0,0,0,83,67.87a2.56,2.56,0,0,0,.3-3.16,9.45,9.45,0,0,0-1.22-1.46L70.27,51.45a10.77,10.77,0,0,1-.87-.92,2.17,2.17,0,0,1,.15-2.8,2.11,2.11,0,0,1,2.78-.26,6.35,6.35,0,0,1,1,.85L85.43,60.46a7.24,7.24,0,0,0,1.16,1,2.41,2.41,0,0,0,2.75,0,2.11,2.11,0,0,0,1-2.39,5.1,5.1,0,0,0-1.24-2.13Q78.83,46.52,68.46,36.18c-.23-.23-.5-.43-.88-.76-.31.37-.56.72-.85,1-1.89,1.9-3.76,3.8-5.68,5.67a6.91,6.91,0,0,1-8,1.56c-4.46-2.13-5.31-7.7-1.69-11.41,2.93-3,5.92-5.95,8.92-8.9a5.54,5.54,0,0,1,1.34-.69c-3.2-2.09-6.33-1.7-8.51.62-1.49,1.59-2.54,1.62-4.08.1l-4.55-4.55L22.23,41.06c5.27,5.27,10.66,10.67,16.07,16a2,2,0,0,0,1.13.44c3.65.34,5.73,2.23,6.48,5.87.06.31.35.77.59.8C50.32,64.8,52.26,67.14,52.82,70.89ZM86.11,17c-1.66,1.68-3.27,3.36-4.93,5a2.2,2.2,0,0,1-3.54-.09c-3-3.16-6.58-3.22-9.67-.14Q61.33,28.35,54.73,35a6.28,6.28,0,0,0-.83,1,2.45,2.45,0,0,0,0,3.06,2.37,2.37,0,0,0,2.85.79,4.63,4.63,0,0,0,1.53-1.09c2.51-2.47,5-5,7.48-7.46,1.29-1.29,2-1.26,3.62-.5a10.38,10.38,0,0,0,3.6,1c2,.12,3.44-.95,4.72-2.37A2.12,2.12,0,0,1,80.8,29,2.14,2.14,0,0,1,81,32.1a5.19,5.19,0,0,1-1.31,1.37c-1.59,1-3.25,1.87-4.61,2.63L93,54l15-15.05Zm3.27-3.18a3.49,3.49,0,0,0,.22.33q12.56,12.56,25.1,25.1c1.29,1.28,2.43,1.24,3.76-.07,2.08-2.06,4.14-4.13,6.21-6.2,1.82-1.83,1.82-2.73,0-4.57L105.94,9.7c-1.5-1.5-3-3-4.51-4.49a2.16,2.16,0,0,0-3.37-.07C95.15,8,92.3,10.88,89.38,13.81ZM41.06,15.5,32.74,7.21c-1.54-1.53-2.58-1.53-4.11,0L5.5,30.33C4,31.86,4,32.9,5.5,34.44c2,2.05,4.08,4.08,6.12,6.12,1.78,1.76,2.68,1.75,4.48-.05q12-12,24-24C40.42,16.19,40.7,15.88,41.06,15.5ZM59.34,82.05a2.53,2.53,0,0,0-2.57,2.45,2.61,2.61,0,0,0,2.53,2.65,2.65,2.65,0,0,0,2.58-2.62A2.55,2.55,0,0,0,59.34,82.05ZM39.16,66.88a2.55,2.55,0,0,0,2.52-2.51,2.57,2.57,0,1,0-5.14,0A2.55,2.55,0,0,0,39.16,66.88Zm6.69,1.69A2.54,2.54,0,0,0,43.29,71a2.55,2.55,0,1,0,5.1.14A2.53,2.53,0,0,0,45.85,68.57Zm6.77,11.79a2.55,2.55,0,0,0,2.53-2.5,2.57,2.57,0,0,0-5.14,0A2.56,2.56,0,0,0,52.62,80.36Z"/><path class="cls-1" d="M116.58,28.33a2.35,2.35,0,1,1-2.41,2.28A2.37,2.37,0,0,1,116.58,28.33Z"/><path class="cls-1" d="M16.2,32.35a2.4,2.4,0,0,1-2.31,2.39,2.36,2.36,0,0,1-2.43-2.39A2.39,2.39,0,0,1,13.82,30,2.43,2.43,0,0,1,16.2,32.35Z"/></g></g></svg>