<svg xmlns="http://www.w3.org/2000/svg" viewBox="0 0 98.24 97.65"><defs><style>.cls-1{fill:#fff;}</style></defs><g id="Layer_2" data-name="Layer 2"><g id="Layer_1-2" data-name="Layer 1"><path class="cls-1" d="M82,28.29c.86-.93,1.52-1.66,2.19-2.37A8,8,0,1,1,96,36.61q-6.28,7.11-12.69,14.11a4.82,4.82,0,0,0-1.42,3.58c.06,11.75,0,23.5,0,35.25,0,4.89-3.23,8.09-8.14,8.1H8.13C3.22,97.65,0,94.44,0,89.55V8.2C0,3.22,3.21,0,8.19,0H73.87C78.75,0,81.94,3.24,82,8.16q0,9.48,0,19C82,27.42,82,27.7,82,28.29ZM78.91,55.77l-.9.95q-10,11.1-19.94,22.19a5.09,5.09,0,0,1-2.17,1.47c-3.4,1.05-6.84,2-10.27,2.92q-3,.81-2.46-2.21c.49-3,1.07-5.93,1.46-8.91a8.39,8.39,0,0,1,2.28-4.74Q62.56,50.12,78.06,32.66a3.45,3.45,0,0,0,.81-2.1c.06-7.49,0-15,0-22.45C78.89,5,77,3.05,73.82,3.05H8.28c-3.39,0-5.23,1.84-5.23,5.21q0,40.46,0,80.92c0,3.68,1.76,5.43,5.46,5.43H73.46c3.66,0,5.45-1.8,5.45-5.46V55.77Zm3.45-8.51L75,40.76C68.54,48,62.22,55,55.84,62.14l7.32,6.51ZM88.91,40c1.81-2,3.52-3.85,5.13-5.76a4.83,4.83,0,0,0-.22-6.44,4.69,4.69,0,0,0-6.41-.57c-2.1,1.89-3.89,4.11-5.86,6.22ZM49.45,68.74a18.68,18.68,0,0,0-1.65,3.59c-.55,2.41-.83,4.88-1.26,7.53,2.61-.74,5-1.3,7.22-2.1a23.88,23.88,0,0,0,3.59-2ZM84.4,45l2.43-2.76-7.3-6.49-2.45,2.73ZM51.77,66.68l7.32,6.5,2-2.24-7.31-6.51Z"/><path class="cls-1" d="M49.71,31.87v1.21c0,1.91-.31,2.24-2.19,2.51-.82.12-2,.1-2.38.61a7.58,7.58,0,0,0-1.35,3.14c-.1.41.47,1,.82,1.5,1.75,2.34,1.76,2.44-.28,4.48l-.32.32c-2.45,2.48-2.4,2.8-5.37.41a1.38,1.38,0,0,0-1.87-.19,1.16,1.16,0,0,1-.54.25c-1.92.25-2.37,1.55-2.5,3.23s-.61,2.13-2.38,2.15h-.61c-4,0-4,0-4.85-3.87-.08-.35-.46-.66-.75-.93s-.49-.15-.69-.28a3.05,3.05,0,0,0-4.35.52c-1,1.06-2.1,1-3.1-.19a23.68,23.68,0,0,0-2.12-2.13,1.84,1.84,0,0,1-.19-2.89l.09-.12c1.43-2,1.51-3.36.13-5.28-.25-.35-.93-.46-1.44-.55-3.23-.59-3.23-.57-3.24-3.87v-.3c0-3.2,0-3.2,3.19-3.75,2-.34,3.22-3.34,2-5-.33-.45-.67-.88-1-1.33a1.61,1.61,0,0,1,.18-2.3c.89-.89,1.78-1.77,2.66-2.67a1.63,1.63,0,0,1,2.4-.22c.2.16.41.3.61.45a3.92,3.92,0,0,0,5.18-.06c.46-.39.51-1.34.63-2.05.42-2.49.5-2.59,3.07-2.59h.45c4.3-.07,3.75.11,4.38,3.59.09.5.65.95,1.08,1.32s.78.23,1.09.47c1.16.87,2,.42,3.05-.36,2.18-1.71,2.31-1.66,4.22.28,2.71,2.76,2.7,2.75.64,6.07A2.63,2.63,0,0,0,44,24.81c0,.18.21.35.25.54.33,2,1.63,2.72,3.56,2.72a1.77,1.77,0,0,1,1.92,2.15C49.68,30.77,49.71,31.32,49.71,31.87Zm-8.47-12.4a20.87,20.87,0,0,0-1.83,1.33,2.29,2.29,0,0,1-3.11.2A12.69,12.69,0,0,0,33,19.64c-1.07-.28-1.71-.75-1.8-1.88A4.16,4.16,0,0,0,31,16.29a4.83,4.83,0,0,0-1.07-1.1c-.3.37-.87.73-.88,1.1,0,2.11-.87,3.42-3.08,3.63a1.28,1.28,0,0,0-.56.21C23,21.76,20.8,22,18.85,19.35l-1.19,1.36a7.57,7.57,0,0,0,.53.72c1.53,1.5,1.91,3.07.48,4.89A3.42,3.42,0,0,0,18,28c-.25,2-1.43,2.83-3.37,2.79-1.18,0-1.65.54-1.16,1.92,2.86-.33,3.93,1.34,5,3.91s1.26,4.25-.69,6.11c-.05,0,0,.18-.07.38l1.08,1c.59-.45,1.14-.8,1.62-1.24a2.35,2.35,0,0,1,3.24-.22,7.83,7.83,0,0,0,2.89,1.22,2.46,2.46,0,0,1,2.3,2.65,2.29,2.29,0,0,0,.14,1c.22.36.62.82.94.82s.94-.52.93-.8c-.06-2.51,1.22-3.74,3.6-4a.78.78,0,0,0,.42-.17c2.2-1.81,4.18-1.33,6,.57.05.05.18,0,.37.06l1-1.07a15.82,15.82,0,0,0-1.12-1.52A2.35,2.35,0,0,1,40.88,38,6.29,6.29,0,0,0,42,35.55a2.92,2.92,0,0,1,3.28-2.74c.64,0,1.64,0,1.37-1a1.74,1.74,0,0,0-1.3-.95C43.36,30.76,42.16,30,42,28a1.54,1.54,0,0,0-.24-.7c-1.63-2.33-2-4.55.66-6.49Z"/><path class="cls-1" d="M28,59H43.38c1.08,0,2.13.08,2.15,1.48s-1.07,1.57-2.21,1.57q-15.36,0-30.73,0c-1.13,0-2.28-.07-2.31-1.5S11.48,59,12.65,59Z"/><path class="cls-1" d="M24.9,82.52c4.16,0,8.32,0,12.48,0,1.1,0,2.1.14,2.09,1.52s-1,1.54-2.12,1.54h-25c-1.11,0-2.12-.26-2.11-1.58s1-1.5,2.14-1.49C16.57,82.53,20.74,82.52,24.9,82.52Z"/><path class="cls-1" d="M24.17,70.78c3.87,0,7.73,0,11.59,0,1.09,0,2.13.13,2.15,1.48s-1,1.58-2.09,1.58H12.36c-1,0-1.83-.21-2.08-1.3s.53-1.74,1.86-1.75c4,0,8,0,12,0Z"/><path class="cls-1" d="M61.69,38.62c-2.61,0-5.22,0-7.83,0-1.09,0-2.12-.12-2.15-1.49s1-1.57,2.08-1.57H69.6c1.12,0,2.09.24,2.08,1.58s-1,1.48-2,1.47Z"/><path class="cls-1" d="M62.58,82.52c2.41,0,4.82,0,7.22,0,1,0,1.87.31,1.89,1.44s-.84,1.62-1.93,1.62H55.17c-1,0-1.81-.43-1.8-1.56s.8-1.49,1.84-1.49C57.67,82.53,60.12,82.52,62.58,82.52Z"/><path class="cls-1" d="M63.28,26.88H56.81c-1.09,0-2-.33-1.93-1.55s.94-1.5,2-1.5q6.39,0,12.79,0c1.07,0,2,.28,2,1.51s-.86,1.56-1.93,1.55H63.28Z"/><path class="cls-1" d="M65.29,15.16H60.62c-1,0-1.7-.47-1.72-1.47a1.49,1.49,0,0,1,1.65-1.58c3.16,0,6.33,0,9.49,0a1.47,1.47,0,0,1,1.65,1.56c0,1.06-.75,1.47-1.73,1.48Z"/><path class="cls-1" d="M51.69,50.34c-1.16,0-2.31,0-3.47,0a1.38,1.38,0,0,1-1.53-1.48,1.4,1.4,0,0,1,1.51-1.52c2.31,0,4.63-.11,6.93.06.53,0,1,1,1.49,1.5-.54.49-1,1.26-1.63,1.39a15.76,15.76,0,0,1-3.3.07Z"/><path class="cls-1" d="M50.86,15.15c-1.16-.05-2.59.33-2.75-1.48-.11-1.15.72-1.59,2.85-1.57,1.18,0,2.58-.25,2.76,1.52C53.83,14.76,53,15.16,50.86,15.15Z"/><path class="cls-1" d="M12.69,50.34c-.35,0-.8.14-1,0-.54-.4-1.32-.94-1.33-1.43a2.12,2.12,0,0,1,1.25-1.49,3.58,3.58,0,0,1,2.33,0c.6.22,1.39,1,1.38,1.48s-.86,1.05-1.44,1.44C13.59,50.5,13.09,50.34,12.69,50.34Z"/><path class="cls-1" d="M36.22,31.68a6.26,6.26,0,1,1-6.29-6.34A6.29,6.29,0,0,1,36.22,31.68Zm-9.45-.25a3.25,3.25,0,0,0,3.06,3.43,3.29,3.29,0,0,0,3.33-3,3.2,3.2,0,1,0-6.39-.41Z"/></g></g></svg>